<svg width="33" height="20" viewBox="0 0 33 20" fill="none" xmlns="http://www.w3.org/2000/svg">
<g clip-path="url(#clip0)">
<path d="M25.59 4.94C18.14 4.94 18.13 12.36 18.13 12.4C18.13 12.4 17.62 19.83 25.59 19.83C25.59 19.83 31.59 20.17 32.19 15.45C32.24 15.03 31.92 14.66 31.5 14.66H29.42C29.12 14.66 28.85 14.85 28.76 15.14C28.58 15.76 27.94 16.75 25.71 16.75C25.71 16.75 22.82 16.94 22.36 14.17C22.29 13.75 22.63 13.38 23.05 13.38H31.71C32.08 13.38 32.39 13.09 32.4 12.71C32.47 10.71 32.1 4.94 25.59 4.94ZM22.78 10.77C22.5 10.77 22.31 10.5 22.39 10.24C22.67 9.38 23.48 7.78 25.67 7.78C27.93 7.78 28.46 9.47 28.59 10.31C28.63 10.55 28.43 10.77 28.19 10.77H22.78ZM13.83 9.04C13.59 8.96 13.55 8.63 13.78 8.51C14.61 8.09 15.59 7.17 15.59 5.17C15.59 1.7 13.17 0 10.1 0H0.51C0.23 0 0 0.23 0 0.51V18.91C0 19.19 0.23 19.42 0.51 19.42H10.1C10.1 19.42 16.27 19.61 16.27 13.68C16.27 13.68 16.48 9.92 13.83 9.04ZM4.45 3.82C4.45 3.62 4.61 3.45 4.82 3.45H10.1C10.1 3.45 11.47 3.45 11.47 5.47C11.47 7.49 10.67 7.79 9.75 7.79H4.82C4.62 7.79 4.45 7.63 4.45 7.42V3.82ZM9.82 15.97H4.82C4.62 15.97 4.45 15.81 4.45 15.6V11.14C4.45 10.94 4.61 10.77 4.82 10.77H10.1C10.1 10.77 12.15 10.75 12.14 13.44C12.14 15.72 10.62 15.95 9.82 15.97ZM21.42 0.78V2.44C21.42 2.64 21.58 2.81 21.79 2.81H29.07C29.27 2.81 29.44 2.65 29.44 2.44V0.78C29.44 0.58 29.28 0.42 29.07 0.42H21.79C21.58 0.41 21.42 0.57 21.42 0.78Z" fill="white"/>
</g>
<defs>
<clipPath id="clip0">
<rect width="32.4" height="19.83" fill="white"/>
</clipPath>
</defs>
</svg>
