<svg width="28" height="28" viewBox="0 0 28 28" fill="none" xmlns="http://www.w3.org/2000/svg">
<path d="M21.363 5.15207C20.4524 5.15207 19.714 5.89042 19.714 6.80105C19.714 7.71169 20.4524 8.45004 21.363 8.45004C22.2737 8.45004 23.012 7.71169 23.012 6.80105C23.012 5.89042 22.2737 5.15207 21.363 5.15207ZM14.0451 7.26868C10.2303 7.26868 7.12921 10.3698 7.12921 14.1846C7.12921 17.9994 10.2303 21.1005 14.0451 21.1005C17.8599 21.1005 20.961 17.9994 20.961 14.1846C20.961 10.3698 17.8599 7.26868 14.0451 7.26868ZM14.0451 18.6065C11.6004 18.6065 9.615 16.6212 9.615 14.1764C9.615 11.7316 11.6004 9.74626 14.0451 9.74626C16.4899 9.74626 18.4752 11.7316 18.4752 14.1764C18.4752 16.6212 16.4899 18.6065 14.0451 18.6065ZM28 8.43364C28 3.77381 24.2262 0 19.5664 0H8.43364C3.77381 0 0 3.77381 0 8.43364V19.5664C0 24.2262 3.77381 28 8.43364 28H19.5664C24.2262 28 28 24.2262 28 19.5664V8.43364ZM25.3583 19.5664C25.3583 22.7659 22.7659 25.3583 19.5664 25.3583H8.43364C5.2341 25.3583 2.64166 22.7659 2.64166 19.5664V8.43364C2.64166 5.2341 5.2341 2.64166 8.43364 2.64166H19.5664C22.7659 2.64166 25.3583 5.2341 25.3583 8.43364V19.5664Z" fill="white"/>
</svg>
