<svg width="37" height="24" viewBox="0 0 37 24" fill="none" xmlns="http://www.w3.org/2000/svg">
<path d="M34.2821 0H2.71792C1.22005 0 0 1.20477 0 2.6839V21.3161C0 22.7952 1.22005 24 2.71792 24H34.2821C35.78 24 37 22.7952 37 21.3161V2.6839C37 1.20477 35.792 0 34.2821 0ZM34.8136 3.10139L18.8443 11.8688C18.7476 11.9165 18.651 11.9523 18.5423 11.9523H18.4577C18.349 11.9523 18.2403 11.9284 18.1557 11.8688L2.1985 3.10139C1.88443 2.93439 1.77571 2.56461 1.94483 2.2664C2.11394 1.96819 2.50049 1.86083 2.80248 2.02783L18.506 10.6402L34.2096 2.02783C34.5116 1.86083 34.8981 1.96819 35.0673 2.2664C35.2243 2.56461 35.1156 2.93439 34.8136 3.10139Z" fill="white"/>
</svg>
