<svg width="24" height="23" viewBox="0 0 24 23" fill="none" xmlns="http://www.w3.org/2000/svg">
<path d="M24 14.1062V22.6151C24 22.8243 23.8332 23 23.6164 23H19.2384C19.0299 23 18.8548 22.8327 18.8548 22.6151V14.7003C18.8548 12.617 18.1126 11.1946 16.253 11.1946C14.8353 11.1946 13.9931 12.1484 13.6178 13.0771C13.4844 13.4118 13.451 13.872 13.451 14.3321V22.6151C13.451 22.8243 13.2842 23 13.0674 23H8.68937C8.48089 23 8.30577 22.8327 8.30577 22.6151C8.31411 20.5067 8.3558 10.2827 8.31411 7.87305C8.31411 7.66388 8.48089 7.48818 8.68937 7.48818H13.0591C13.2675 7.48818 13.4427 7.65552 13.4427 7.87305V9.68862C13.4343 9.70535 13.4177 9.72209 13.4093 9.73882H13.4427V9.68862C14.1265 8.63442 15.344 7.12842 18.0709 7.12842C21.4649 7.12842 24 9.34559 24 14.1062ZM0.717164 23H5.0952C5.30368 23 5.4788 22.8327 5.4788 22.6151V7.87305C5.4788 7.66388 5.31202 7.48818 5.0952 7.48818H0.717164C0.508686 7.48818 0.333565 7.65552 0.333565 7.87305V22.6151C0.333565 22.8243 0.508686 23 0.717164 23Z" fill="white"/>
<path d="M2.75191 5.52201C4.27175 5.52201 5.50382 4.28586 5.50382 2.761C5.50382 1.23614 4.27175 0 2.75191 0C1.23207 0 0 1.23614 0 2.761C0 4.28586 1.23207 5.52201 2.75191 5.52201Z" fill="white"/>
</svg>
