<svg width="45" height="45" viewBox="0 0 45 45" fill="none" xmlns="http://www.w3.org/2000/svg">
<path d="M14.6408 18.2847L11.8306 25.9714H17.3408L14.6408 18.2847Z" fill="black"/>
<path d="M31.8332 21.5081C29.8901 21.5081 28.283 22.9734 28.1138 25.0897H35.6076C35.386 22.7869 33.7214 21.5081 31.8332 21.5081Z" fill="black"/>
<path d="M0 0V45H45V0H0ZM19.8482 33.5204L18.0298 28.6439H11.1972L9.40638 33.5204H5.49413L12.9605 13.9592H16.3217L23.7605 33.5204H19.8482ZM39.3269 27.4867H28.1687C28.2238 28.0562 28.8329 31.0959 31.9983 31.0959C34.0465 31.0959 35.1758 29.7279 35.4147 29.1398L38.583 30.0214C38.05 31.1235 36.2468 33.7959 31.8606 33.7959C27.2497 33.7959 24.2565 30.3779 24.2565 26.3847C24.2565 22.8013 26.7474 18.8357 31.8881 18.8357C35.558 18.8357 39.4096 21.2659 39.4096 26.2469C39.4096 26.4858 39.3635 27.3399 39.3269 27.4867Z" fill="black"/>
</svg>
