<svg width="30" height="45" viewBox="0 0 30 45" fill="none" xmlns="http://www.w3.org/2000/svg">
<g clip-path="url(#clip0)">
<path d="M7.41621 45C11.5083 45 14.8295 41.64 14.8295 37.5V30H7.41621C3.32408 30 0.00292969 33.36 0.00292969 37.5C0.00292969 41.64 3.32408 45 7.41621 45Z" fill="black"/>
<path d="M0.00292969 22.5C0.00292969 18.36 3.32408 15 7.41621 15H14.8295V30H7.41621C3.32408 30 0.00292969 26.64 0.00292969 22.5Z" fill="black"/>
<path d="M0.00219727 7.5C0.00219727 3.36 3.32335 0 7.41548 0H14.8288V15H7.41548C3.32335 15 0.00219727 11.64 0.00219727 7.5Z" fill="black"/>
<path d="M14.8296 0H22.2429C26.335 0 29.6562 3.36 29.6562 7.5C29.6562 11.64 26.335 15 22.2429 15H14.8296V0Z" fill="black"/>
<path d="M29.6562 22.5C29.6562 26.64 26.335 30 22.2429 30C18.1507 30 14.8296 26.64 14.8296 22.5C14.8296 18.36 18.1507 15 22.2429 15C26.335 15 29.6562 18.36 29.6562 22.5Z" fill="black"/>
<path d="M7.70679 -21.4398V7.96259H36.8514V-21.4398H7.70679ZM20.5616 0.461974L19.3839 -2.72429H14.9587L13.7989 0.461974H11.2651L16.1007 -12.3191H18.2776L23.0954 0.461974H20.5616ZM33.1771 -3.48035H25.9505C25.9862 -3.10824 26.3807 -1.12216 28.4307 -1.12216C29.7573 -1.12216 30.4886 -2.016 30.6433 -2.40026L32.6954 -1.82421C32.3502 -1.10415 31.1823 0.641988 28.3415 0.641988C25.3552 0.641988 23.4167 -1.59132 23.4167 -4.20041C23.4167 -6.54172 25.03 -9.13281 28.3594 -9.13281C30.7362 -9.13281 33.2307 -7.54493 33.2307 -4.29041C33.2307 -4.13433 33.2009 -3.57628 33.1771 -3.48035Z" fill="black"/>
</g>
<defs>
<clipPath id="clip0">
<rect width="29.6591" height="45" fill="white"/>
</clipPath>
</defs>
</svg>
