<svg width="32" height="45" viewBox="0 0 32 45" fill="none" xmlns="http://www.w3.org/2000/svg">
<g clip-path="url(#clip0)">
<path d="M31.6466 8.82129L28.7686 41.2761L15.8315 44.8864L2.93002 41.2811L0.0549316 8.82129H31.6466Z" fill="#767676"/>
<path d="M15.8511 42.1267L26.3049 39.2094L28.7643 11.4752H15.8511V42.1267Z" fill="#888888"/>
<path d="M10.2561 19.4375H15.851V15.4564H5.93384L6.02845 16.5245L7.00056 27.4952H15.851V23.5142H10.6176L10.2561 19.4375V19.4375ZM11.1474 29.4858H7.17727L7.73131 35.7367L15.8328 38.0004L15.851 37.9954V33.8534L15.8336 33.8581L11.429 32.6609L11.1474 29.4858V29.4858Z" fill="#EBEBEB"/>
<path d="M2.99438 0H5.00424V1.99882H6.84282V0H8.8528V6.05294H6.84295V4.02607H5.00436V6.05294H2.99451V0H2.99438ZM11.4957 2.0073H9.72658V0H15.2762V2.0073H13.5059V6.05294H11.4961V2.0073H11.4959H11.4957ZM16.1569 0H18.2525L19.5417 2.12684L20.8296 0H22.9261V6.05294H20.9244V3.05277L19.5417 5.20492H19.507L18.1234 3.05277V6.05294H16.1569V0ZM23.9263 0H25.9368V4.05224H28.7632V6.05294H23.9262V0H23.9263Z" fill="black"/>
<path d="M15.8373 27.4952H20.7074L20.2482 32.6584L15.8372 33.8568V37.9986L23.945 35.7367L24.0045 35.0641L24.934 24.5832L25.0305 23.5142H15.8373V27.4952ZM15.8373 19.4278V19.4375H25.3903L25.4696 18.5427L25.6499 16.5245L25.7444 15.4564H15.8373V19.4279V19.4278Z" fill="white"/>
</g>
<defs>
<clipPath id="clip0">
<rect width="31.7045" height="45" fill="white"/>
</clipPath>
</defs>
</svg>
