<svg width="46" height="45" viewBox="0 0 46 45" fill="none" xmlns="http://www.w3.org/2000/svg">
<path d="M26.8695 21.9763C24.3553 21.9763 23.095 24.4705 23.095 26.3845C23.095 28.4883 24.6423 30.6549 27.0899 30.6549C29.4063 30.6549 30.46 28.5795 30.5887 28.2304V24.7865C30.4417 24.3827 29.1193 21.9763 26.8695 21.9763Z" fill="black"/>
<path d="M0.822266 0V45H45.8223V0H0.822266ZM16.593 33.5204H12.7911V13.9592H16.593V33.5204ZM33.5644 33.7133C30.8987 33.7133 31.14 31.0133 31.14 31.0133C30.607 31.9319 29.0189 33.7959 26.1257 33.7959C21.8872 33.7959 19.2654 30.2631 19.2654 26.302C19.2654 21.8112 22.289 18.8357 25.7123 18.8357C28.6123 18.8357 30.111 20.7918 30.5887 21.6184V13.4082H34.2806V29.2776C34.2806 29.6633 34.8222 30.3615 35.1346 30.3796V33.5204H35.1349C34.4917 33.6487 33.9682 33.7133 33.5644 33.7133Z" fill="black"/>
</svg>
