<svg width="45" height="45" viewBox="0 0 45 45" fill="none" xmlns="http://www.w3.org/2000/svg">
<path d="M40.9206 0H4.07936C1.82637 0 0 1.82637 0 4.07936V40.9206C0 43.1736 1.82637 45 4.07936 45H40.9206C43.1736 45 45 43.1736 45 40.9206V4.07936C45 1.82637 43.1736 0 40.9206 0Z" fill="#6E6E6E"/>
<path d="M15.0388 14.1583C16.5347 14.1583 17.7878 12.9858 17.7878 11.4491C17.7878 9.9135 16.5347 8.74121 15.0388 8.74121C13.5429 8.74121 12.2901 9.9135 12.2901 11.4491C12.2901 12.9856 13.5429 14.1583 15.0388 14.1583ZM9.33889 28.6637C9.17734 29.351 9.09631 30.0932 9.09631 30.6986C9.09631 33.0841 10.3899 34.6677 13.1389 34.6677C15.4188 34.6677 17.2672 33.3139 18.598 31.1277L17.7854 34.3889H22.3126L24.9001 24.011C25.547 21.3834 26.8001 20.0195 28.7003 20.0195C30.196 20.0195 31.1257 20.9497 31.1257 22.4854C31.1257 22.9303 31.0853 23.4149 30.9236 23.9407L29.5894 28.7108C29.3873 29.3981 29.3068 30.0858 29.3068 30.7322C29.3068 32.9967 30.6404 34.6531 33.4299 34.6531C35.8151 34.6531 37.7149 33.1177 38.7661 29.4388L36.9875 28.7521C36.0981 31.2168 35.3299 31.6624 34.7235 31.6624C34.117 31.6624 33.7936 31.2584 33.7936 30.4504C33.7936 30.0865 33.8748 29.6827 33.9957 29.1965L35.2897 24.5492C35.6129 23.458 35.7344 22.4903 35.7344 21.6012C35.7344 18.1246 33.632 16.3102 31.0853 16.3102C28.7003 16.3102 26.2745 18.4616 25.062 20.7258L25.9511 16.6617H19.0387L18.0684 20.2413H21.3026L19.311 28.2148C17.747 31.6914 14.8742 31.7478 14.5137 31.6671C13.9217 31.5335 13.543 31.3087 13.543 30.5395C13.543 30.0956 13.6239 29.4581 13.8261 28.6894L16.8583 16.6617H9.17734L8.20703 20.2413H11.4005L9.33906 28.6637" fill="white"/>
</svg>
