<svg width="47" height="45" viewBox="0 0 47 45" fill="none" xmlns="http://www.w3.org/2000/svg">
<g clip-path="url(#clip0)">
<path d="M0 0H46.0227V45H0V0Z" fill="#F7DF1E"/>
<g style="mix-blend-mode:color">
<rect width="46.0227" height="45" fill="black"/>
</g>
<path d="M12.1013 37.6052L15.6231 35.5211C16.3026 36.699 16.9207 37.6957 18.4033 37.6957C19.8244 37.6957 20.7206 37.1522 20.7206 35.0379V20.6594H25.0455V35.0977C25.0455 39.4776 22.4197 41.4713 18.5887 41.4713C15.1289 41.4713 13.1206 39.7193 12.1011 37.6048L12.1013 37.6052ZM27.3946 37.152L30.9161 35.1585C31.8432 36.6387 33.0481 37.7261 35.1795 37.7261C36.9717 37.7261 38.1143 36.85 38.1143 35.6417C38.1143 34.1919 36.9404 33.6782 34.9632 32.8327L33.8822 32.3792C30.7619 31.0807 28.6921 29.4495 28.6921 26.0059C28.6921 22.8341 31.1635 20.4175 35.0252 20.4175C37.7747 20.4175 39.7519 21.354 41.1729 23.8007L37.8053 25.9154C37.0637 24.6165 36.2608 24.1031 35.0251 24.1031C33.7584 24.1031 32.9551 24.8885 32.9551 25.9154C32.9551 27.184 33.7584 27.6978 35.6119 28.4832L36.693 28.9362C40.3695 30.4769 42.4392 32.0475 42.4392 35.5814C42.4392 39.3878 39.3809 41.4719 35.2721 41.4719C31.2561 41.4719 28.661 39.5991 27.3945 37.1522" fill="black"/>
</g>
<defs>
<clipPath id="clip0">
<rect width="46.0227" height="45" fill="white"/>
</clipPath>
</defs>
</svg>
