<svg width="46" height="45" viewBox="0 0 46 45" fill="none" xmlns="http://www.w3.org/2000/svg">
<path d="M18.2253 17.2927H13.9824V23.6295H18.3906C19.7243 23.6295 20.8426 22.3851 20.8426 20.4611C20.8427 18.808 19.8391 17.2927 18.2253 17.2927Z" fill="black"/>
<path d="M0.897705 0V45H45.8977V0H0.897705ZM18.6111 26.9633H13.9825V33.5204H10.1804V13.9592H18.4733C22.2689 13.9592 24.6998 17.449 24.6998 20.4612C24.6998 24.0115 22.001 26.9633 18.6111 26.9633ZM32.4412 33.7959C29.1088 33.7959 26.7381 32.2806 25.9116 31.5643L27.2892 29.25C28.1708 29.8746 30.1994 31.151 32.3586 31.151C33.758 31.151 34.7279 30.5644 34.7279 29.5531C34.7279 28.3115 32.6796 27.9095 31.5596 27.5969C30.6228 27.3399 26.4075 26.7474 26.4075 23.5745C26.4075 20.5198 29.0658 18.8082 32.083 18.8082C35.2504 18.8082 36.9411 20.094 37.731 20.7918L36.2433 23.0235C35.5084 22.4724 33.8728 21.4255 32.0555 21.4255C30.7159 21.4255 29.8514 21.9978 29.8514 23.051C29.8514 24.3654 32.1563 24.741 32.6892 24.8694C33.681 25.1268 38.282 25.8291 38.282 29.2224C38.282 33.2334 34.2411 33.7959 32.4412 33.7959Z" fill="black"/>
</svg>
