<svg width="45" height="45" viewBox="0 0 45 45" fill="none" xmlns="http://www.w3.org/2000/svg">
<path d="M21.8236 0.000387967C20.002 0.00872504 18.2627 0.163954 16.7324 0.43471C12.2237 1.2307 11.4051 2.89613 11.4051 5.96814V10.0251H22.0597V11.3773H7.40624C4.30984 11.3773 1.59811 13.2369 0.750096 16.7742C-0.228258 20.8288 -0.271572 23.3589 0.750096 27.5925C1.50751 30.7439 3.31639 32.9894 6.41279 32.9894H10.0762V28.1261C10.0762 24.6126 13.119 21.5136 16.7324 21.5136H27.3747C30.3372 21.5136 32.702 19.0768 32.702 16.1044V5.96775C32.702 3.08312 30.266 0.915878 27.3747 0.434313C25.5439 0.130208 23.6452 -0.00834611 21.8236 0.000387967V0.000387967ZM16.0616 3.26296C17.1624 3.26296 18.0608 4.17567 18.0608 5.2976C18.0608 6.41556 17.162 7.31994 16.0616 7.31994C14.9573 7.31994 14.0624 6.41596 14.0624 5.2976C14.0624 4.17567 14.9573 3.26296 16.0616 3.26296Z" fill="url(#paint0_linear)"/>
<path d="M34.0313 11.377V16.1037C34.0313 19.7684 30.9213 22.8527 27.3751 22.8527H16.7328C13.8176 22.8527 11.4055 25.3451 11.4055 28.2619V38.3978C11.4055 41.2828 13.9162 42.9796 16.7328 43.807C20.1054 44.7979 23.3397 44.9769 27.3751 43.807C30.0574 43.0312 32.7024 41.4694 32.7024 38.3978V34.3412H22.0601V32.989H38.0297C41.1265 32.989 42.2801 30.8309 43.357 27.5922C44.4697 24.2581 44.4224 21.0511 43.357 16.7738C42.5917 13.6943 41.1301 11.377 38.0297 11.377H34.0313ZM28.0455 37.0456C29.1498 37.0456 30.0447 37.9496 30.0447 39.0679C30.0447 40.1899 29.1498 41.1026 28.0455 41.1026C26.9447 41.1026 26.0463 40.1899 26.0463 39.0679C26.0463 37.95 26.9451 37.0456 28.0455 37.0456Z" fill="url(#paint1_linear)"/>
<defs>
<linearGradient id="paint0_linear" x1="-1.05084" y1="1.26722" x2="23.4989" y2="22.2043" gradientUnits="userSpaceOnUse">
<stop stop-color="#717171"/>
<stop offset="1" stop-color="#717171"/>
</linearGradient>
<linearGradient id="paint1_linear" x1="32.7382" y1="35.2189" x2="23.9343" y2="22.8715" gradientUnits="userSpaceOnUse">
<stop stop-color="#DEDEDE"/>
<stop offset="1" stop-color="#DEDEDE"/>
</linearGradient>
</defs>
</svg>
